<svg width="5" height="11" viewBox="0 0 5 11" fill="none" xmlns="http://www.w3.org/2000/svg">
<path d="M4.79382 10.7715C4.85915 10.6985 4.911 10.6116 4.94639 10.5159C4.98178 10.4201 5 10.3175 5 10.2138C5 10.11 4.98178 10.0074 4.94639 9.91162C4.911 9.81588 4.85915 9.72899 4.79382 9.65596L1.60136 6.05779C1.53603 5.98476 1.48417 5.89787 1.44878 5.80213C1.41339 5.7064 1.39518 5.60371 1.39518 5.5C1.39518 5.39629 1.41339 5.2936 1.44878 5.19787C1.48417 5.10213 1.53603 5.01524 1.60136 4.94221L4.79382 1.34404C4.85915 1.27101 4.911 1.18412 4.94639 1.08838C4.98178 0.992646 5 0.88996 5 0.786248C5 0.682536 4.98178 0.57985 4.94639 0.484115C4.911 0.388379 4.85915 0.301488 4.79382 0.228454C4.66322 0.0821305 4.48655 6.12284e-09 4.3024 8.31879e-09C4.11825 1.05147e-08 3.94159 0.0821305 3.81099 0.228454L0.611558 3.83447C0.219958 4.27639 5.81389e-08 4.87543 6.55868e-08 5.5C7.30348e-08 6.12457 0.219958 6.72361 0.611559 7.16553L3.81099 10.7715C3.94159 10.9179 4.11825 11 4.3024 11C4.48655 11 4.66322 10.9179 4.79382 10.7715Z" fill="#828282"/>
</svg>
