<svg width="12" height="13" viewBox="0 0 12 13" fill="none" xmlns="http://www.w3.org/2000/svg">
<path d="M11.7208 1.15509C11.542 0.986065 11.2996 0.891113 11.0467 0.891113C10.7939 0.891113 10.5514 0.986065 10.3726 1.15509L6 5.28979L1.62737 1.15509C1.44857 0.986065 1.2061 0.891113 0.953269 0.891113C0.700442 0.891113 0.457967 0.986065 0.279164 1.15509C0.100415 1.32416 0 1.55344 0 1.79251C0 2.03158 0.100415 2.26086 0.279164 2.42994L4.65179 6.56464L0.279164 10.6993C0.100415 10.8684 0 11.0977 0 11.3368C0 11.5758 0.100415 11.8051 0.279164 11.9742C0.457967 12.1432 0.700442 12.2382 0.953269 12.2382C1.2061 12.2382 1.44857 12.1432 1.62737 11.9742L6 7.83949L10.3726 11.9742C10.5514 12.1432 10.7939 12.2382 11.0467 12.2382C11.2996 12.2382 11.542 12.1432 11.7208 11.9742C11.8996 11.8051 12 11.5758 12 11.3368C12 11.0977 11.8996 10.8684 11.7208 10.6993L7.34821 6.56464L11.7208 2.42994C11.8996 2.26086 12 2.03158 12 1.79251C12 1.55344 11.8996 1.32416 11.7208 1.15509Z" fill="#FF0F0F"/>
</svg>
